#!OML:ASF I:\Actors\actors\Patient Classification 2\Patient 1\Session 1\actor1.ASF
:FULLY-SPECIFIED
:DEGREES
922
root -0.681052 18.7389 5.12799 5.65511 3.86455 -1.05298
lowerback 23.3097 -1.2236 0.0559166
upperback 11.1276 -1.50264 0.552339
thorax -0.780481 -0.748583 0.90733
lowerneck -21.6519 0.189124 0.328316
upperneck 17.4449 -0.036858 0.858481
head 9.03696 0.103676 0.236814
rclavicle 1.77912e-014 -3.18055e-015
rhumerus 38.2503 78.323 -54.117
rradius 105.695
rwrist -49.1604
rhand 25.2895 -29.4102
rfingers 7.12502
rthumb 49.4268 -50.9288
lclavicle 1.77912e-014 -3.18055e-015
lhumerus -55.1202 -63.9695 147.097
lradius 121.45
lwrist 24.3837
lhand 10.4432 -17.3525
lfingers 7.12502
lthumb 35.5466 9.07413
rfemur -1.48377 -3.75282 14.8373
rtibia 5.33792
rfoot -15.2425 -10.2408
rtoes -12.7519
lfemur -18.2463 0.961942 -12.4969
ltibia 28.9709
lfoot -14.339 0.585335
ltoes -57.4482
923
root -0.669876 18.7553 5.13728 5.5526 3.87345 -1.04897
lowerback 23.193 -1.20511 0.0899124
upperback 11.0211 -1.47455 0.514302
thorax -0.843339 -0.731937 0.83976
lowerneck -21.5333 0.132373 0.313597
upperneck 17.6841 -0.108732 0.847756
head 9.09941 0.0685558 0.225882
rclavicle -3.67752e-015 1.19271e-015
rhumerus 38.4837 78.303 -53.8486
rradius 106.03
rwrist -48.5502
rhand 24.3888 -29.2597
rfingers 7.12502
rthumb 48.5994 -51.1879
lclavicle -3.67752e-015 1.19271e-015
lhumerus -55.4001 -63.9695 147.185
lradius 121.721
lwrist 24.4584
lhand 10.3563 -17.3611
lfingers 7.12502
lthumb 35.4642 9.08532
rfemur -0.501727 -3.76029 14.7176
rtibia 3.70415
rfoot -14.5175 -10.7482
rtoes -12.8459
lfemur -17.9828 1.07985 -12.4743
ltibia 28.7823
lfoot -14.0418 0.20485
ltoes -57.5058
924
root -0.658283 18.7708 5.14637 5.44505 3.90436 -1.06908
lowerback 23.0432 -1.23645 0.213623
upperback 10.9349 -1.49345 0.455852
thorax -0.869829 -0.734932 0.709295
lowerneck -21.3506 0.0479372 0.0859785
upperneck 17.8818 -0.202953 1.06914
head 9.13682 0.0345247 0.326551
rclavicle 4.27387e-015 -4.37326e-015
rhumerus 38.6226 77.9634 -53.8178
rradius 106.582
rwrist -48.497
rhand 23.5623 -30.3164
rfingers 7.12502
rthumb 47.838 -52.6045
lclavicle 4.27387e-015 -4.37326e-015
lhumerus -55.2406 -64.1154 146.737
lradius 122.117
lwrist 24.2825
lhand 10.3888 -17.2822
lfingers 7.12502
lthumb 35.495 9.15678
rfemur 1.50918 -3.78741 14.5857
rtibia 5.56597e-015
rfoot -13.0091 -11.9853
rtoes -13.8954
lfemur -17.7151 1.03578 -12.4164
ltibia 28.5813
lfoot -13.8283 -0.0128935
ltoes -57.5169
925
root -0.646136 18.7841 5.1518 5.2999 3.91952 -1.04345
lowerback 22.9507 -1.27033 0.355343
upperback 10.8319 -1.51313 0.359248
thorax -0.944003 -0.736579 0.529539
lowerneck -20.9333 -0.0769136 -0.264499
upperneck 17.9277 -0.333287 1.37919
head 9.0812 -0.0163836 0.472286
rclavicle -1.74931e-014 5.76476e-015
rhumerus 40.713 77.5885 -51.8827
rradius 107.091
rwrist -47.7364
rhand 22.073 -29.9978
rfingers 7.12502
rthumb 46.4611 -52.8978
lclavicle -1.74931e-014 5.76476e-015
lhumerus -54.9861 -64.395 146.119
lradius 122.553
lwrist 23.8065
lhand 10.6013 -17.3474
lfingers 7.12502
lthumb 35.6964 9.04316
rfemur 1.70396 -3.79224 14.4819
rtibia -2.38542e-015
rfoot -13.0231 -11.9416
rtoes -15.5319
lfemur -17.4361 1.00707 -12.4197
ltibia 28.4114
lfoot -13.5894 -0.244909
ltoes -57.4617
926
root -0.632464 18.793 5.15301 5.16087 3.89811 -0.97197
lowerback 22.9009 -1.26309 0.41005
upperback 10.6728 -1.49645 0.284494
thorax -1.09783 -0.72419 0.415929
lowerneck -20.3131 -0.180867 -0.615301
upperneck 17.911 -0.420227 1.61212
head 8.96799 -0.0575058 0.596982
rclavicle -1.46107e-014 3.18055e-015
rhumerus 43.7805 77.1218 -48.9482
rradius 107.702
rwrist -46.9825
rhand 20.6991 -29.87
rfingers 7.12502
rthumb 45.1858 -53.296
lclavicle -1.46107e-014 3.18055e-015
lhumerus -54.9269 -64.8083 145.718
lradius 122.999
lwrist 23.1947
lhand 10.5744 -17.5462
lfingers 7.12502
lthumb 35.6709 8.85051
rfemur 1.88349 -3.76462 14.3305
rtibia -4.77083e-015
rfoot -13.1268 -11.8952
rtoes -16.3919
lfemur -17.1992 1.08821 -12.5093
ltibia 28.2947
lfoot -13.3803 -0.528631
ltoes -57.5008
927
root -0.620529 18.7948 5.15353 4.97055 3.8291 -0.984134
lowerback 22.8821 -1.23681 0.383191
upperback 10.5335 -1.46868 0.296412
thorax -1.24034 -0.711976 0.439049
lowerneck -19.497 -0.24612 -0.978887
upperneck 17.7312 -0.441141 1.78744
head 8.76333 -0.0770015 0.711746
rclavicle -1.04362e-014 3.97569e-015
rhumerus 47.6697 76.5253 -45.1193
rradius 108.519
rwrist -46.7414
rhand 19.4337 -29.9613
rfingers 7.12502
rthumb 44.0072 -53.8415
lclavicle -1.04362e-014 3.97569e-015
lhumerus -54.681 -65.2417 145.19
lradius 123.49
lwrist 22.2925
lhand 10.4203 -17.8612
lfingers 7.12502
lthumb 35.5249 8.57059
rfemur 2.11284 -3.67688 14.2845
rtibia -1.51076e-014
rfoot -13.2911 -11.8269
rtoes -16.2672
lfemur -16.939 1.1813 -12.5231
ltibia 28.2514
lfoot -13.3495 -0.681007
ltoes -57.6055
928
root -0.607682 18.7897 5.15186 4.71547 3.72437 -1.00459
lowerback 22.9108 -1.2288 0.330869
upperback 10.4418 -1.46894 0.317346
thorax -1.35276 -0.71478 0.493074
lowerneck -18.5774 -0.275025 -1.4072
upperneck 17.3769 -0.401977 1.97588
head 8.48073 -0.072308 0.847703
rclavicle -2.06736e-014 2.3059e-014
rhumerus 52.0714 75.7786 -40.8017
rradius 109.443
rwrist -47.0979
rhand 18.1071 -29.0976
rfingers 7.12502
rthumb 42.7678 -53.4251
lclavicle -2.06736e-014 2.3059e-014
lhumerus -54.2724 -65.7104 144.471
lradius 124.069
lwrist 21.1736
lhand 10.0514 -18.2694
lfingers 7.12502
lthumb 35.175 8.2456
rfemur 2.3961 -3.54629 14.2468
rtibia 7.95139e-016
rfoot -13.5036 -11.7274
rtoes -16.1085
lfemur -16.6602 1.15859 -12.5496
ltibia 28.3078
lfoot -13.5037 -0.634805
ltoes -57.5802
929
root -0.58832 18.7797 5.14497 4.57771 3.66643 -0.960434
lowerback 22.8219 -1.26542 0.347201
upperback 10.3531 -1.51558 0.282233
thorax -1.4075 -0.7367 0.456493
lowerneck -17.771 -0.280108 -1.85118
upperneck 17.0514 -0.348965 2.24068
head 8.22882 -0.0533598 1.01279
rclavicle 5.36719e-015 -6.16232e-015
rhumerus 55.9173 74.8665 -37.1413
rradius 110.425
rwrist -47.8053
rhand 16.8824 -27.8231
rfingers 7.12502
rthumb 41.6205 -52.539
lclavicle 5.36719e-015 -6.16232e-015
lhumerus -53.9018 -66.2739 143.666
lradius 124.727
lwrist 20.0546
lhand 9.51683 -18.5025
lfingers 7.12502
lthumb 34.6679 8.13045
rfemur 2.52665 -3.47846 14.1371
rtibia -1.59028e-015
rfoot -13.6869 -11.6833
rtoes -16.5863
lfemur -16.5901 1.05223 -12.7019
ltibia 28.4494
lfoot -13.7629 -0.411663
ltoes -57.4972
930
root -0.563539 18.7655 5.13064 4.58599 3.61622 -0.95307
lowerback 22.6026 -1.27993 0.514672
upperback 10.2744 -1.50655 0.212679
thorax -1.39203 -0.725518 0.281506
lowerneck -17.1899 -0.32303 -2.27354
upperneck 16.8342 -0.388914 2.66196
head 8.05609 -0.0598492 1.21558
rclavicle -5.66536e-015 3.97569e-015
rhumerus 58.1585 73.8858 -35.068
rradius 111.44
rwrist -48.3591
rhand 15.7187 -26.9339
rfingers 7.12502
rthumb 40.5277 -51.9986
lclavicle -5.66536e-015 3.97569e-015
lhumerus -53.8804 -66.9435 143.049
lradius 125.447
lwrist 19.0042
lhand 9.12677 -18.7224
lfingers 7.12502
lthumb 34.2976 7.99478
rfemur 2.44252 -3.43047 14.0633
rtibia -1.19271e-014
rfoot -13.8143 -11.7166
rtoes -16.9507
lfemur -16.7503 0.988827 -12.8604
ltibia 28.6354
lfoot -14.0402 -0.0844498
ltoes -57.3854
931
root -0.543236 18.7506 5.11511 4.50203 3.5306 -0.970928
lowerback 22.4651 -1.18302 0.579909
upperback 10.2795 -1.37249 0.189177
thorax -1.32109 -0.656747 0.185812
lowerneck -16.7197 -0.377428 -2.42379
upperneck 16.6019 -0.468148 2.85297
head 7.89895 -0.0907676 1.29176
rclavicle 1.6201e-014 -7.15625e-015
rhumerus 58.9378 72.9091 -34.3032
rradius 112.418
rwrist -48.5476
rhand 14.5677 -26.482
rfingers 7.12502
rthumb 39.4446 -51.8732
lclavicle 1.6201e-014 -7.15625e-015
lhumerus -54.3382 -67.7168 142.863
lradius 126.194
lwrist 18.0126
lhand 8.64922 -19.0915
lfingers 7.12502
lthumb 33.8441 7.72675
rfemur 2.45566 -3.33596 14.0139
rtibia 1.59028e-014
rfoot -13.9342 -11.7151
rtoes -16.6023
lfemur -16.812 1.02953 -12.975
ltibia 28.8434
lfoot -14.3021 0.12447
ltoes -57.285
932
root -0.531695 18.7409 5.10496 4.32317 3.48755 -0.971145
lowerback 22.4415 -1.06037 0.460741
upperback 10.3189 -1.23876 0.191828
thorax -1.26388 -0.594419 0.224866
lowerneck -16.2889 -0.37032 -2.23824
upperneck 16.4045 -0.475817 2.68097
head 7.7574 -0.102577 1.20074
rclavicle 1.18277e-014 -2.5842e-015
rhumerus 59.1129 71.9953 -34.0825
rradius 113.343
rwrist -48.4359
rhand 13.4266 -26.3022
rfingers 7.12502
rthumb 38.3686 -52.0002
lclavicle 1.18277e-014 -2.5842e-015
lhumerus -55.0336 -68.4041 142.908
lradius 126.916
lwrist 17.0431
lhand 8.20734 -19.3747
lfingers 7.12502
lthumb 33.4241 7.53504
rfemur 2.62353 -3.27467 13.956
rtibia 3.97569e-015
rfoot -13.9381 -11.6623
rtoes -16.0506
lfemur -16.7377 1.17202 -13.0451
ltibia 29.04
lfoot -14.4857 0.120707
ltoes -57.2905
933
root -0.513989 18.7365 5.09134 4.22363 3.4501 -0.95745
lowerback 22.4588 -1.03018 0.358217
upperback 10.321 -1.22059 0.180634
thorax -1.26836 -0.588557 0.267259
lowerneck -16.053 -0.270277 -2.14349
upperneck 16.4065 -0.347438 2.58064
head 7.71293 -0.0470465 1.16578
rclavicle -4.96962e-016 -6.16232e-015
rhumerus 59.5145 71.5141 -33.5545
rradius 114.114
rwrist -47.8933
rhand 11.8494 -25.6469
rfingers 7.12502
rthumb 36.8782 -51.7427
lclavicle -4.96962e-016 -6.16232e-015
lhumerus -55.4217 -68.8298 142.746
lradius 127.524
lwrist 16.2634
lhand 7.99462 -19.7003
lfingers 7.12502
lthumb 33.2219 7.25278
rfemur 2.67897 -3.22809 13.8507
rtibia 0
rfoot -13.7294 -11.6931
rtoes -15.7639
lfemur -16.7387 1.27393 -13.1192
ltibia 29.1785
lfoot -14.4927 0.0879674
ltoes -57.2678
934
root -0.487758 18.7367 5.07454 4.20815 3.37328 -0.920566
lowerback 22.4643 -1.04751 0.301671
upperback 10.3331 -1.2554 0.155431
thorax -1.25726 -0.607235 0.280353
lowerneck -15.9337 -0.140194 -2.14251
upperneck 16.4033 -0.172333 2.57982
head 7.68636 0.0352416 1.18449
rclavicle 1.19271e-014 3.18055e-015
rhumerus 59.464 71.6264 -33.2858
rradius 114.72
rwrist -46.9528
rhand 10.2961 -24.6458
rfingers 7.12502
rthumb 35.4072 -51.1058
lclavicle 1.19271e-014 3.18055e-015
lhumerus -55.6256 -69.0775 142.563
lradius 127.981
lwrist 16.0473
lhand 7.79673 -19.931
lfingers 7.12502
lthumb 33.0337 7.06205
rfemur 2.61302 -3.15307 13.678
rtibia 3.97569e-015
rfoot -13.4862 -11.7881
rtoes -15.3752
lfemur -16.8038 1.27752 -13.2335
ltibia 29.2456
lfoot -14.3533 0.0534005
ltoes -57.1457
935
root -0.460302 18.7424 5.06104 4.21059 3.25892 -0.897811
lowerback 22.5255 -1.06655 0.370441
upperback 10.3336 -1.27178 0.0195731
thorax -1.29144 -0.609813 0.101072
lowerneck -15.7439 -0.0291171 -1.93266
upperneck 16.287 -0.0683863 2.55599
head 7.61207 0.0942136 1.15203
rclavicle -1.04362e-014 -6.75868e-015
rhumerus 57.1962 73.2669 -35.3541
rradius 114.982
rwrist -44.8648
rhand 9.63252 -23.9096
rfingers 7.12502
rthumb 34.7777 -50.5173
lclavicle -1.04362e-014 -6.75868e-015
lhumerus -56.3719 -69.2125 142.9
lradius 128.349
lwrist 16.3792
lhand 7.70867 -19.5338
lfingers 7.12502
lthumb 32.95 7.47694
rfemur 2.52786 -3.04203 13.5138
rtibia 1.74931e-014
rfoot -13.2976 -11.9044
rtoes -14.882
lfemur -16.8367 1.345 -13.3313
ltibia 29.2478
lfoot -14.155 -0.0304708
ltoes -57.0774
